<?xml version="1.0" encoding="UTF-8" standalone="no"?>
<svg
   xmlns:dc="http://purl.org/dc/elements/1.1/"
   xmlns:cc="http://creativecommons.org/ns#"
   xmlns:rdf="http://www.w3.org/1999/02/22-rdf-syntax-ns#"
   xmlns:svg="http://www.w3.org/2000/svg"
   xmlns="http://www.w3.org/2000/svg"
   width="4.2333865mm"
   height="4.2332749mm"
   viewBox="0 0 4.2333865 4.2332745"
   version="1.1"
   id="svg8">
  <defs
     id="defs2" />
  <metadata
     id="metadata5">
    <rdf:RDF>
      <cc:Work
         rdf:about="">
        <dc:format>image/svg+xml</dc:format>
        <dc:type
           rdf:resource="http://purl.org/dc/dcmitype/StillImage" />
        <dc:title></dc:title>
      </cc:Work>
    </rdf:RDF>
  </metadata>
  <g
     id="layer1"
     transform="translate(-55.107012,-75.549858)">
    <path
       style="fill:#ff5555;stroke-width:0.0104607"
       d="m 56.882612,79.770975 c -0.0901,-0.02184 -0.07084,-0.09631 0.03124,-0.120758 0.204501,-0.04897 0.260084,-0.08963 0.261978,-0.191621 4.82e-4,-0.02596 0.01,-0.04363 -0.01075,-0.05615 -0.04387,-0.02653 -0.05867,-0.06251 0.0092,-0.05508 0.03376,0.0037 0.01466,-0.02275 0.0079,-0.171408 -0.0038,-0.08499 -0.01516,-0.184955 -0.02513,-0.222146 -0.03693,-0.137804 -0.05779,-0.26992 -0.06898,-0.436706 -0.01255,-0.187266 -0.03843,-0.362555 -0.06758,-0.457739 -0.0179,-0.05846 -0.041,-0.08933 -0.04116,-0.05502 -1.33e-4,0.02755 -0.04149,0.06487 -0.10407,0.09391 -0.03284,0.01524 -0.09793,0.05509 -0.144657,0.08855 -0.08596,0.06157 -0.334971,0.219792 -0.667532,0.424155 -0.199821,0.122793 -0.554219,0.349734 -0.699438,0.447891 -0.07405,0.05005 -0.177415,0.101659 -0.255917,0.127772 -0.0048,0.0016 0.01545,-0.0268 0.04502,-0.06311 0.07062,-0.08672 0.149978,-0.146799 0.570218,-0.43168 0.19343,-0.131126 0.477434,-0.325353 0.631121,-0.431615 0.4229,-0.292403 0.528238,-0.358895 0.528238,-0.333445 0,0.0079 0.0041,0.0079 0.01677,1.03e-4 0.02358,-0.01454 0.01775,-0.05865 -0.01087,-0.08228 -0.02118,-0.01749 -0.02387,-0.03155 -0.02209,-0.115767 0.0011,-0.05272 0.01958,-0.199315 0.04104,-0.325764 0.03847,-0.22667 0.03876,-0.231178 0.02037,-0.320068 -0.01251,-0.06046 -0.01656,-0.122833 -0.0123,-0.189336 0.0061,-0.09459 0.0046,-0.103076 -0.03293,-0.18346 -0.05651,-0.12123 -0.05018,-0.150789 0.04644,-0.217105 0.04025,-0.02763 0.08308,-0.06241 0.09517,-0.07728 0.01209,-0.01488 0.04409,-0.04744 0.0711,-0.07236 0.02701,-0.02493 0.0564,-0.05837 0.0653,-0.07433 0.01404,-0.02518 0.01353,-0.03202 -0.0039,-0.05176 -0.0163,-0.01848 -0.02439,-0.02102 -0.04313,-0.01357 -0.01268,0.005 -0.03498,0.0092 -0.04956,0.0092 -0.03862,0 -0.113377,-0.06062 -0.138991,-0.1127 -0.02634,-0.05354 -0.04961,-0.07613 -0.03717,-0.03606 l 0.0084,0.02705 -0.02716,-0.01985 c -0.01447,-0.01057 -0.02037,-0.03649 -0.02726,-0.03608 -0.0051,3.06e-4 -0.01173,0.02456 -0.01796,0.03066 -0.01387,0.01356 -0.01338,0.01284 -0.01373,-0.01304 -2.11e-4,-0.01612 -0.005,-0.03522 -0.0121,-0.03522 -0.0027,0 -0.01891,0.0099 -0.01922,0.008 -4.99e-4,-0.0031 0.0064,-0.01299 0.009,-0.01896 0.01161,-0.02718 -0.0021,-0.06492 -0.02491,-0.06215 -0.0056,7e-4 -0.01376,0.01266 -0.01735,0.01035 -0.0052,-0.0033 -0.007,-0.01436 -0.0064,-0.03272 2.15e-4,-0.0067 0.01615,-0.02973 0.0094,-0.03105 -0.0077,-0.0015 -0.03828,0.01942 -0.04071,0.02292 -0.02518,0.03637 -0.01209,-0.01579 0.01762,-0.0813 0.04882,-0.107652 0.170893,-0.218749 0.286964,-0.26116 0.109626,-0.04005 0.286629,-0.02385 0.428248,0.03921 0.05289,0.02355 0.07285,0.03935 0.0971,0.07683 0.0166,0.02568 0.02967,0.04398 0.03563,0.0519 0.0029,0.0037 0.0056,-0.0028 0.02179,-0.0045 0.04659,2.39e-4 0.108892,0.04951 0.12293,0.09724 0.02027,0.06891 -0.0085,0.07103 0.017,0.126923 0.0059,0.01291 -0.03489,-0.06152 -0.04046,-0.05885 -0.01305,0.0063 -0.002,0.08247 0.01928,0.120212 0.01001,0.0178 0.0182,0.03302 0.0182,0.03382 0,0.0024 -0.05116,-0.06753 -0.07029,-0.07292 -0.01239,-0.0035 0.0046,0.06861 0.0015,0.06625 -0.0046,-0.0034 -0.01757,-0.0335 -0.02891,-0.06693 -0.0153,-0.04507 -0.02304,-0.05649 -0.02994,-0.04418 -0.0052,0.0093 -6e-4,0.04338 0.01062,0.07793 0.01096,0.03373 0.01993,0.08716 0.01993,0.11874 0,0.05295 0.0042,0.06204 0.05386,0.11705 0.107421,0.118952 0.252269,0.218666 0.437686,0.301304 0.131688,0.05869 0.203908,0.104541 0.286961,0.18218 0.11646,0.108867 0.224161,0.340374 0.236061,0.451619 0.0061,0.05705 -0.01324,0.242223 -0.03674,0.325918 -0.0094,0.03356 -0.03145,0.08076 -0.04895,0.104885 -0.0253,0.03486 -0.03024,0.03832 -0.0241,0.01682 0.06498,-0.227275 0.07619,-0.36921 0.03703,-0.468832 -0.02958,-0.07523 -0.103886,-0.174796 -0.194623,-0.260762 -0.08154,-0.07726 -0.112979,-0.100948 -0.169245,-0.127544 l -0.03497,-0.01653 0.0085,0.0221 c 0.0046,0.01215 0.03751,0.0647 0.07297,0.116765 0.107013,0.157114 0.131559,0.205452 0.129924,0.34773 -7.5e-4,0.06694 -0.01635,0.128765 -0.0232,0.143641 -0.0099,0.02157 -0.01268,0.0052 -0.01351,-0.08114 -0.0016,-0.171703 -0.0331,-0.237891 -0.206689,-0.434887 -0.05836,-0.06623 -0.136655,-0.140088 -0.195927,-0.184827 -0.111053,-0.08382 -0.111228,-0.08107 -0.0021,0.03343 0.161636,0.169643 0.252022,0.330537 0.286309,0.50965 0.02213,0.115587 0.03925,0.589704 0.02247,0.622104 -0.0086,0.01653 -0.01324,-0.01597 -0.01754,-0.121716 -0.0066,-0.162882 -0.01171,-0.180457 -0.04746,-0.164118 -0.02009,0.0092 -0.0269,0.0077 -0.04444,-0.0094 -0.01979,-0.01937 -0.02056,-0.01479 -0.01747,0.103684 0.0042,0.158335 -0.01537,0.140678 -0.02732,-0.02474 -0.0067,-0.09313 -0.01374,-0.126941 -0.02992,-0.144255 -0.01163,-0.01244 -0.03973,-0.04887 -0.06246,-0.08095 l -0.04132,-0.05834 -0.0077,0.0944 c -0.01363,0.167842 -0.0393,0.193956 -0.05069,0.05157 -0.0075,-0.09418 -0.03314,-0.185174 -0.06014,-0.21382 -0.01214,-0.01287 -0.01472,0.01535 -0.01347,0.147411 l 0.0016,0.163331 0.05703,0.111119 c 0.08464,0.164915 0.14014,0.230232 0.295214,0.347418 0.168525,0.127352 0.486763,0.307663 0.889088,0.503753 0.09699,0.04728 0.176548,0.09185 0.184033,0.09863 0.0063,0.0221 -6e-4,0.02872 0.01251,0.05498 0.02102,0.04213 0.06798,0.09222 0.06414,0.09513 -0.0021,0.0016 -0.03574,-0.0018 -0.07477,-0.0074 -0.03903,-0.0056 -0.103737,-0.009 -0.143789,-0.0074 l -0.07282,0.0029 -0.0037,0.04349 -0.0038,0.04349 -0.05364,-0.03673 c -0.02951,-0.02021 -0.06089,-0.03673 -0.06974,-0.03673 -0.0089,0 -0.04153,0.01197 -0.07259,0.02661 -0.06084,0.02866 -0.121663,0.08409 -0.150586,0.137232 -0.02891,0.05311 -0.03775,0.05217 -0.159615,-0.01707 l -0.03523,-0.02001 -0.04718,0.02652 c -0.05785,0.02678 -0.06098,0.02857 -0.09104,0.03326 -0.03336,0.0052 -0.0083,-0.03509 -0.03415,-0.05244 -0.05575,-0.03741 -0.05769,-0.02406 -0.07558,0.0051 -0.02854,0.04652 0.05396,0.191296 0.157979,0.277239 0.04167,0.03442 0.05508,0.05271 0.05508,0.07503 0,0.0359 -0.05006,0.11714 -0.06003,0.10357 -0.02794,-0.03804 -0.01644,0.02194 -0.0194,0.06987 -0.0077,0.125297 -0.0652,0.157349 -0.292023,0.162925 l -0.142061,0.0035 -0.0076,-0.02256 c -0.01523,-0.04506 -0.0024,-0.06388 0.05972,-0.08757 0.03259,-0.01243 0.06746,-0.03178 0.07749,-0.043 0.02425,-0.02713 0.03538,-0.141517 0.01551,-0.159309 -0.0091,-0.0082 -0.0117,-0.02384 -0.0067,-0.04076 0.0063,-0.02145 2.75e-4,-0.03699 -0.0277,-0.07074 -0.02683,-0.03239 -0.0097,-0.03113 -0.04794,-0.05108 -0.0215,-0.0112 0.01555,-0.03592 0.02564,-0.03178 0.03813,0.01561 0.01329,-0.04177 -0.0037,-0.07489 l -0.01125,-0.02199 -0.149558,0.02921 c -0.08226,0.01607 -0.175954,0.03787 -0.208215,0.04845 -0.06442,0.02113 -0.152774,0.02536 -0.175586,0.0084 -0.01133,-0.0084 -0.01458,-0.0079 -0.01463,0.0022 -3.6e-5,0.0072 -0.01027,0.07799 -0.02275,0.157328 -0.02701,0.171677 -0.02322,0.274716 0.01318,0.357789 0.02148,0.04903 0.02381,0.06448 0.0125,0.08292 -0.02101,0.03425 -0.06679,0.05177 -0.149919,0.05737 -0.06349,0.0043 -0.07759,0.0025 -0.09122,-0.01131 -0.01495,-0.01519 -0.0225,-0.01552 -0.104356,-0.0045 -0.120178,0.01615 -0.201494,0.01804 -0.251823,0.0058 z m 1.324904,-2.214322 c 0.02672,-0.01261 -0.05669,-0.370382 -0.117784,-0.51219 -0.03102,-0.07202 -0.06285,-0.119047 -0.04944,-0.07308 0.0038,0.013 0.01807,0.106313 0.03172,0.207368 0.03054,0.225952 0.05267,0.32685 0.07801,0.355574 0.02078,0.02356 0.03404,0.0334 0.0575,0.02233 z m -0.411692,-0.101751 c -0.0088,-0.07764 -0.06116,-0.258033 -0.100084,-0.344862 -0.03591,-0.08011 -0.03629,-0.08051 -0.02957,-0.03155 0.0038,0.02727 0.0045,0.105598 0.01028,0.173651 0.0057,0.06715 -0.01316,0.116258 0.01,0.134749 0.02392,0.01912 0.03526,0.0232 0.05829,0.052 0.02786,0.03484 0.05197,0.06335 0.05357,0.06335 0.0016,0 4.87e-4,-0.0213 -0.0024,-0.04734 z m 0.02255,-0.562823 c -0.01431,-0.01828 -0.01776,-0.01243 -0.0061,0.01024 0.0041,0.0081 0.122968,0.345406 0.126093,0.343085 0.0031,-0.0023 -0.112935,-0.344281 -0.120042,-0.353331 z m -0.04438,-0.08535 c -0.0177,-0.03153 -0.03764,-0.06139 -0.04432,-0.06634 -0.0067,-0.0049 -0.003,0.0072 0.0082,0.02705 0.01118,0.01984 0.02875,0.05145 0.03906,0.07025 0.01031,0.0188 0.0211,0.03243 0.024,0.03028 0.0029,-0.0022 -0.0092,-0.0297 -0.02692,-0.06123 z"
       id="path1982" />
  </g>
</svg>
